<mxfile host="app.diagrams.net" modified="2022-09-07T21:53:48.478Z" agent="5.0 (Windows NT 10.0; Win64; x64) AppleWebKit/537.36 (KHTML, like Gecko) Chrome/105.0.0.0 Safari/537.36 Edg/105.0.1343.27" etag="zp8z4ZOJyW8dgb69orWn" version="20.3.0" type="github">
  <diagram id="vNlHMKD4oS61HcacLFFc" name="Página-1">
    <mxGraphModel dx="868" dy="1651" grid="1" gridSize="10" guides="1" tooltips="1" connect="1" arrows="1" fold="1" page="1" pageScale="1" pageWidth="827" pageHeight="1169" math="0" shadow="0">
      <root>
        <mxCell id="0" />
        <mxCell id="1" parent="0" />
        <mxCell id="QRBA2kNhPpUKqvIY0Zrv-6" style="edgeStyle=orthogonalEdgeStyle;rounded=0;orthogonalLoop=1;jettySize=auto;html=1;" edge="1" parent="1" source="QRBA2kNhPpUKqvIY0Zrv-1" target="QRBA2kNhPpUKqvIY0Zrv-4">
          <mxGeometry relative="1" as="geometry">
            <mxPoint x="400" y="220" as="targetPoint" />
            <Array as="points">
              <mxPoint x="320" y="270" />
              <mxPoint x="320" y="190" />
            </Array>
          </mxGeometry>
        </mxCell>
        <mxCell id="QRBA2kNhPpUKqvIY0Zrv-1" value="Pessoa" style="rounded=0;whiteSpace=wrap;html=1;" vertex="1" parent="1">
          <mxGeometry x="80" y="240" width="160" height="60" as="geometry" />
        </mxCell>
        <mxCell id="QRBA2kNhPpUKqvIY0Zrv-7" style="edgeStyle=orthogonalEdgeStyle;rounded=0;orthogonalLoop=1;jettySize=auto;html=1;entryX=0.5;entryY=0;entryDx=0;entryDy=0;" edge="1" parent="1" source="QRBA2kNhPpUKqvIY0Zrv-2" target="QRBA2kNhPpUKqvIY0Zrv-4">
          <mxGeometry relative="1" as="geometry" />
        </mxCell>
        <mxCell id="QRBA2kNhPpUKqvIY0Zrv-2" value="Banco&lt;span style=&quot;color: rgba(0, 0, 0, 0); font-family: monospace; font-size: 0px; text-align: start;&quot;&gt;%3CmxGraphModel%3E%3Croot%3E%3CmxCell%20id%3D%220%22%2F%3E%3CmxCell%20id%3D%221%22%20parent%3D%220%22%2F%3E%3CmxCell%20id%3D%222%22%20value%3D%22Pessoa%22%20style%3D%22rounded%3D0%3BwhiteSpace%3Dwrap%3Bhtml%3D1%3B%22%20vertex%3D%221%22%20parent%3D%221%22%3E%3CmxGeometry%20x%3D%22100%22%20y%3D%2250%22%20width%3D%22160%22%20height%3D%2260%22%20as%3D%22geometry%22%2F%3E%3C%2FmxCell%3E%3C%2Froot%3E%3C%2FmxGraphModel%3E&lt;/span&gt;" style="rounded=0;whiteSpace=wrap;html=1;" vertex="1" parent="1">
          <mxGeometry x="320" y="40" width="160" height="60" as="geometry" />
        </mxCell>
        <mxCell id="QRBA2kNhPpUKqvIY0Zrv-8" style="edgeStyle=orthogonalEdgeStyle;rounded=0;orthogonalLoop=1;jettySize=auto;html=1;entryX=1;entryY=0.5;entryDx=0;entryDy=0;" edge="1" parent="1" source="QRBA2kNhPpUKqvIY0Zrv-3" target="QRBA2kNhPpUKqvIY0Zrv-4">
          <mxGeometry relative="1" as="geometry">
            <mxPoint x="480" y="190" as="targetPoint" />
            <Array as="points">
              <mxPoint x="480" y="270" />
              <mxPoint x="480" y="190" />
            </Array>
          </mxGeometry>
        </mxCell>
        <mxCell id="QRBA2kNhPpUKqvIY0Zrv-3" value="Companhia" style="rounded=0;whiteSpace=wrap;html=1;" vertex="1" parent="1">
          <mxGeometry x="560" y="240" width="160" height="60" as="geometry" />
        </mxCell>
        <mxCell id="QRBA2kNhPpUKqvIY0Zrv-10" style="edgeStyle=orthogonalEdgeStyle;rounded=0;orthogonalLoop=1;jettySize=auto;html=1;" edge="1" parent="1" source="QRBA2kNhPpUKqvIY0Zrv-4" target="QRBA2kNhPpUKqvIY0Zrv-9">
          <mxGeometry relative="1" as="geometry" />
        </mxCell>
        <mxCell id="QRBA2kNhPpUKqvIY0Zrv-4" value="U" style="ellipse;whiteSpace=wrap;html=1;aspect=fixed;" vertex="1" parent="1">
          <mxGeometry x="380" y="170" width="40" height="40" as="geometry" />
        </mxCell>
        <mxCell id="QRBA2kNhPpUKqvIY0Zrv-9" value="Pessoa" style="rounded=0;whiteSpace=wrap;html=1;" vertex="1" parent="1">
          <mxGeometry x="320" y="330" width="160" height="60" as="geometry" />
        </mxCell>
        <mxCell id="QRBA2kNhPpUKqvIY0Zrv-18" style="edgeStyle=orthogonalEdgeStyle;rounded=0;orthogonalLoop=1;jettySize=auto;html=1;entryX=0.25;entryY=0;entryDx=0;entryDy=0;" edge="1" parent="1" source="QRBA2kNhPpUKqvIY0Zrv-11" target="QRBA2kNhPpUKqvIY0Zrv-1">
          <mxGeometry relative="1" as="geometry" />
        </mxCell>
        <mxCell id="QRBA2kNhPpUKqvIY0Zrv-11" value="CNH" style="ellipse;whiteSpace=wrap;html=1;fontStyle=4" vertex="1" parent="1">
          <mxGeometry x="90" y="165" width="70" height="50" as="geometry" />
        </mxCell>
        <mxCell id="QRBA2kNhPpUKqvIY0Zrv-19" style="edgeStyle=orthogonalEdgeStyle;rounded=0;orthogonalLoop=1;jettySize=auto;html=1;entryX=0.75;entryY=0;entryDx=0;entryDy=0;" edge="1" parent="1" source="QRBA2kNhPpUKqvIY0Zrv-13" target="QRBA2kNhPpUKqvIY0Zrv-1">
          <mxGeometry relative="1" as="geometry" />
        </mxCell>
        <mxCell id="QRBA2kNhPpUKqvIY0Zrv-13" value="CPF" style="ellipse;whiteSpace=wrap;html=1;fontStyle=4" vertex="1" parent="1">
          <mxGeometry x="160" y="160" width="70" height="50" as="geometry" />
        </mxCell>
        <mxCell id="QRBA2kNhPpUKqvIY0Zrv-17" style="edgeStyle=orthogonalEdgeStyle;rounded=0;orthogonalLoop=1;jettySize=auto;html=1;" edge="1" parent="1" source="QRBA2kNhPpUKqvIY0Zrv-15" target="QRBA2kNhPpUKqvIY0Zrv-1">
          <mxGeometry relative="1" as="geometry">
            <mxPoint x="80" y="260" as="targetPoint" />
            <Array as="points">
              <mxPoint x="40" y="270" />
            </Array>
          </mxGeometry>
        </mxCell>
        <mxCell id="QRBA2kNhPpUKqvIY0Zrv-15" value="NOME" style="ellipse;whiteSpace=wrap;html=1;fontStyle=0" vertex="1" parent="1">
          <mxGeometry x="20" y="170" width="70" height="50" as="geometry" />
        </mxCell>
        <mxCell id="QRBA2kNhPpUKqvIY0Zrv-21" style="edgeStyle=orthogonalEdgeStyle;rounded=0;orthogonalLoop=1;jettySize=auto;html=1;entryX=0.931;entryY=-0.017;entryDx=0;entryDy=0;entryPerimeter=0;" edge="1" parent="1" source="QRBA2kNhPpUKqvIY0Zrv-20" target="QRBA2kNhPpUKqvIY0Zrv-1">
          <mxGeometry relative="1" as="geometry" />
        </mxCell>
        <mxCell id="QRBA2kNhPpUKqvIY0Zrv-20" value="ENDEREÇO" style="ellipse;whiteSpace=wrap;html=1;fontStyle=0" vertex="1" parent="1">
          <mxGeometry x="220" y="130" width="100" height="50" as="geometry" />
        </mxCell>
        <mxCell id="QRBA2kNhPpUKqvIY0Zrv-24" style="edgeStyle=orthogonalEdgeStyle;rounded=0;orthogonalLoop=1;jettySize=auto;html=1;entryX=0;entryY=0.5;entryDx=0;entryDy=0;" edge="1" parent="1" source="QRBA2kNhPpUKqvIY0Zrv-22" target="QRBA2kNhPpUKqvIY0Zrv-2">
          <mxGeometry relative="1" as="geometry" />
        </mxCell>
        <mxCell id="QRBA2kNhPpUKqvIY0Zrv-22" value="Bnome" style="ellipse;whiteSpace=wrap;html=1;fontStyle=4" vertex="1" parent="1">
          <mxGeometry x="320" y="-40" width="70" height="50" as="geometry" />
        </mxCell>
        <mxCell id="QRBA2kNhPpUKqvIY0Zrv-25" style="edgeStyle=orthogonalEdgeStyle;rounded=0;orthogonalLoop=1;jettySize=auto;html=1;entryX=0.881;entryY=-0.017;entryDx=0;entryDy=0;entryPerimeter=0;" edge="1" parent="1" source="QRBA2kNhPpUKqvIY0Zrv-23" target="QRBA2kNhPpUKqvIY0Zrv-2">
          <mxGeometry relative="1" as="geometry" />
        </mxCell>
        <mxCell id="QRBA2kNhPpUKqvIY0Zrv-23" value="Bendereço" style="ellipse;whiteSpace=wrap;html=1;fontStyle=0" vertex="1" parent="1">
          <mxGeometry x="400" y="-40" width="100" height="50" as="geometry" />
        </mxCell>
        <mxCell id="QRBA2kNhPpUKqvIY0Zrv-28" style="edgeStyle=orthogonalEdgeStyle;rounded=0;orthogonalLoop=1;jettySize=auto;html=1;entryX=0.213;entryY=0;entryDx=0;entryDy=0;entryPerimeter=0;" edge="1" parent="1" source="QRBA2kNhPpUKqvIY0Zrv-26" target="QRBA2kNhPpUKqvIY0Zrv-3">
          <mxGeometry relative="1" as="geometry" />
        </mxCell>
        <mxCell id="QRBA2kNhPpUKqvIY0Zrv-26" value="Cnome" style="ellipse;whiteSpace=wrap;html=1;fontStyle=4;labelBorderColor=none;" vertex="1" parent="1">
          <mxGeometry x="560" y="165" width="70" height="50" as="geometry" />
        </mxCell>
        <mxCell id="QRBA2kNhPpUKqvIY0Zrv-29" style="edgeStyle=orthogonalEdgeStyle;rounded=0;orthogonalLoop=1;jettySize=auto;html=1;entryX=0.925;entryY=0;entryDx=0;entryDy=0;entryPerimeter=0;" edge="1" parent="1" source="QRBA2kNhPpUKqvIY0Zrv-27" target="QRBA2kNhPpUKqvIY0Zrv-3">
          <mxGeometry relative="1" as="geometry" />
        </mxCell>
        <mxCell id="QRBA2kNhPpUKqvIY0Zrv-27" value="Cendereço" style="ellipse;whiteSpace=wrap;html=1;fontStyle=0" vertex="1" parent="1">
          <mxGeometry x="660" y="165" width="100" height="50" as="geometry" />
        </mxCell>
      </root>
    </mxGraphModel>
  </diagram>
</mxfile>
